# xmcd CD database file
#
# Track frame offsets:
#	150
#	12443
#	25316
#	44144
#	56596
#	65480
#	84396
#	95168
#	112329
#	119555
#	134371
#	145647
#	153642
#	169302
#
# Disc length: 2431 seconds
#
# Revision: 0
# Processed by: cddbd v1.5.2PL0 Copyright (c) Steve Scherf et al.
# Submitted via: CDex 1.50Beta3
#
DISCID=d3097d0e
DTITLE=Celestial Cocktails - Spanish Coffee
DYEAR=2003
DGENRE=Jazz
TTITLE0=Sevillanas
TTITLE1=Bulerias
TTITLE2=Soleares
TTITLE3=Caracoles
TTITLE4=Alegraias
TTITLE5=Taranta
TTITLE6=Farruca
TTITLE7=Seguirillas
TTITLE8=Zapateado
TTITLE9=Granaina
TTITLE10=Alergrias
TTITLE11=Bulerias
TTITLE12=Solearas
TTITLE13=Tientos
EXTD=YEAR: 2003
EXTT0=
EXTT1=
EXTT2=
EXTT3=
EXTT4=
EXTT5=
EXTT6=
EXTT7=
EXTT8=
EXTT9=
EXTT10=
EXTT11=
EXTT12=
EXTT13=
PLAYORDER=
